<svg width="13" height="16" viewBox="0 0 13 16" fill="none" xmlns="http://www.w3.org/2000/svg">
<path d="M4 6C4.13261 6 4.25979 6.05268 4.35355 6.14645C4.44732 6.24021 4.5 6.36739 4.5 6.5V12.5C4.5 12.6326 4.44732 12.7598 4.35355 12.8536C4.25979 12.9473 4.13261 13 4 13C3.86739 13 3.74021 12.9473 3.64645 12.8536C3.55268 12.7598 3.5 12.6326 3.5 12.5V6.5C3.5 6.36739 3.55268 6.24021 3.64645 6.14645C3.74021 6.05268 3.86739 6 4 6ZM6.5 6C6.63261 6 6.75979 6.05268 6.85355 6.14645C6.94732 6.24021 7 6.36739 7 6.5V12.5C7 12.6326 6.94732 12.7598 6.85355 12.8536C6.75979 12.9473 6.63261 13 6.5 13C6.36739 13 6.24021 12.9473 6.14645 12.8536C6.05268 12.7598 6 12.6326 6 12.5V6.5C6 6.36739 6.05268 6.24021 6.14645 6.14645C6.24021 6.05268 6.36739 6 6.5 6ZM9.5 6.5C9.5 6.36739 9.44732 6.24021 9.35355 6.14645C9.25979 6.05268 9.13261 6 9 6C8.86739 6 8.74021 6.05268 8.64645 6.14645C8.55268 6.24021 8.5 6.36739 8.5 6.5V12.5C8.5 12.6326 8.55268 12.7598 8.64645 12.8536C8.74021 12.9473 8.86739 13 9 13C9.13261 13 9.25979 12.9473 9.35355 12.8536C9.44732 12.7598 9.5 12.6326 9.5 12.5V6.5Z" fill="#0D6EFD"/>
<path fill-rule="evenodd" clip-rule="evenodd" d="M13 3.5C13 3.76522 12.8946 4.01957 12.7071 4.20711C12.5196 4.39464 12.2652 4.5 12 4.5H11.5V13.5C11.5 14.0304 11.2893 14.5391 10.9142 14.9142C10.5391 15.2893 10.0304 15.5 9.5 15.5H3.5C2.96957 15.5 2.46086 15.2893 2.08579 14.9142C1.71071 14.5391 1.5 14.0304 1.5 13.5V4.5H1C0.734784 4.5 0.48043 4.39464 0.292893 4.20711C0.105357 4.01957 0 3.76522 0 3.5V2.5C0 2.23478 0.105357 1.98043 0.292893 1.79289C0.48043 1.60536 0.734784 1.5 1 1.5H4.5C4.5 1.23478 4.60536 0.98043 4.79289 0.792893C4.98043 0.605357 5.23478 0.5 5.5 0.5H7.5C7.76522 0.5 8.01957 0.605357 8.20711 0.792893C8.39464 0.98043 8.5 1.23478 8.5 1.5H12C12.2652 1.5 12.5196 1.60536 12.7071 1.79289C12.8946 1.98043 13 2.23478 13 2.5V3.5ZM2.618 4.5L2.5 4.559V13.5C2.5 13.7652 2.60536 14.0196 2.79289 14.2071C2.98043 14.3946 3.23478 14.5 3.5 14.5H9.5C9.76522 14.5 10.0196 14.3946 10.2071 14.2071C10.3946 14.0196 10.5 13.7652 10.5 13.5V4.559L10.382 4.5H2.618ZM1 3.5V2.5H12V3.5H1Z" fill="#0D6EFD"/>
</svg>
