<svg width="31" height="31" viewBox="0 0 31 31" fill="none" xmlns="http://www.w3.org/2000/svg">
<rect x="0.5" y="0.5" width="30" height="30" rx="4.3" fill="white" fill-opacity="0.01"/>
<g clip-path="url(#clip0_2112_537846)">
<path d="M23.5 15.5C23.5 15.5 20.5 10 15.5 10C10.5 10 7.5 15.5 7.5 15.5C7.5 15.5 10.5 21 15.5 21C20.5 21 23.5 15.5 23.5 15.5ZM8.673 15.5C9.15651 14.7651 9.71264 14.0807 10.333 13.457C11.62 12.168 13.38 11 15.5 11C17.62 11 19.379 12.168 20.668 13.457C21.2884 14.0807 21.8445 14.7651 22.328 15.5C22.27 15.587 22.206 15.683 22.133 15.788C21.798 16.268 21.303 16.908 20.668 17.543C19.379 18.832 17.619 20 15.5 20C13.38 20 11.621 18.832 10.332 17.543C9.71165 16.9193 9.15652 16.2349 8.673 15.5Z" fill="#0D6EFD"/>
<path d="M15.5 13C14.837 13 14.2011 13.2634 13.7322 13.7322C13.2634 14.2011 13 14.837 13 15.5C13 16.163 13.2634 16.7989 13.7322 17.2678C14.2011 17.7366 14.837 18 15.5 18C16.163 18 16.7989 17.7366 17.2678 17.2678C17.7366 16.7989 18 16.163 18 15.5C18 14.837 17.7366 14.2011 17.2678 13.7322C16.7989 13.2634 16.163 13 15.5 13ZM12 15.5C12 14.5717 12.3687 13.6815 13.0251 13.0251C13.6815 12.3687 14.5717 12 15.5 12C16.4283 12 17.3185 12.3687 17.9749 13.0251C18.6313 13.6815 19 14.5717 19 15.5C19 16.4283 18.6313 17.3185 17.9749 17.9749C17.3185 18.6313 16.4283 19 15.5 19C14.5717 19 13.6815 18.6313 13.0251 17.9749C12.3687 17.3185 12 16.4283 12 15.5Z" fill="#0D6EFD"/>
</g>
<rect x="0.5" y="0.5" width="30" height="30" rx="4.3" stroke="#0D6EFD"/>
<defs>
<clipPath id="clip0_2112_537846">
<rect width="16" height="16" fill="white" transform="translate(7.5 7.5)"/>
</clipPath>
</defs>
</svg>
